<mxfile host="app.diagrams.net" modified="2020-03-31T05:53:53.920Z" agent="5.0 (Windows NT 10.0; Win64; x64) AppleWebKit/537.36 (KHTML, like Gecko) Chrome/80.0.3987.149 Safari/537.36" etag="DiSJbcRa3uLnPpW2a3oG" version="12.9.5" type="github" pages="3">
  <diagram name="Page-1" id="8ce9d11a-91a2-4d17-14d8-a56ed91bf033">
    <mxGraphModel dx="1182" dy="732" grid="1" gridSize="10" guides="1" tooltips="1" connect="1" arrows="1" fold="1" page="1" pageScale="1" pageWidth="1100" pageHeight="850" background="#ffffff" math="0" shadow="0">
      <root>
        <mxCell id="0" />
        <mxCell id="1" parent="0" />
        <mxCell id="17ea667e15c223fc-28" style="edgeStyle=orthogonalEdgeStyle;rounded=1;html=1;labelBackgroundColor=none;startArrow=none;startFill=0;startSize=5;endArrow=classicThin;endFill=1;endSize=5;jettySize=auto;orthogonalLoop=1;strokeWidth=1;fontFamily=Verdana;fontSize=8" parent="1" source="17ea667e15c223fc-1" target="17ea667e15c223fc-2" edge="1">
          <mxGeometry relative="1" as="geometry" />
        </mxCell>
        <mxCell id="17ea667e15c223fc-1" value="Reviewers are&amp;nbsp;&lt;div&gt;to&amp;nbsp;&lt;span&gt;be invited&lt;/span&gt;&lt;/div&gt;" style="shape=hexagon;perimeter=hexagonPerimeter;whiteSpace=wrap;html=1;rounded=0;shadow=0;labelBackgroundColor=none;strokeWidth=1;fontFamily=Verdana;fontSize=12;align=center;" parent="1" vertex="1">
          <mxGeometry x="30" y="60" width="120" height="80" as="geometry" />
        </mxCell>
        <mxCell id="17ea667e15c223fc-29" style="edgeStyle=orthogonalEdgeStyle;rounded=1;html=1;labelBackgroundColor=none;startArrow=none;startFill=0;startSize=5;endArrow=classicThin;endFill=1;endSize=5;jettySize=auto;orthogonalLoop=1;strokeWidth=1;fontFamily=Verdana;fontSize=8" parent="1" source="17ea667e15c223fc-2" target="17ea667e15c223fc-3" edge="1">
          <mxGeometry relative="1" as="geometry" />
        </mxCell>
        <mxCell id="17ea667e15c223fc-2" value="Invite reviewers" style="rounded=1;whiteSpace=wrap;html=1;shadow=0;labelBackgroundColor=none;strokeWidth=1;fontFamily=Verdana;fontSize=12;align=center;" parent="1" vertex="1">
          <mxGeometry x="180" y="60" width="120" height="80" as="geometry" />
        </mxCell>
        <mxCell id="17ea667e15c223fc-30" style="edgeStyle=orthogonalEdgeStyle;rounded=1;html=1;labelBackgroundColor=none;startArrow=none;startFill=0;startSize=5;endArrow=classicThin;endFill=1;endSize=5;jettySize=auto;orthogonalLoop=1;strokeWidth=1;fontFamily=Verdana;fontSize=8" parent="1" source="17ea667e15c223fc-3" target="17ea667e15c223fc-5" edge="1">
          <mxGeometry relative="1" as="geometry" />
        </mxCell>
        <mxCell id="17ea667e15c223fc-31" style="edgeStyle=orthogonalEdgeStyle;rounded=1;html=1;labelBackgroundColor=none;startArrow=none;startFill=0;startSize=5;endArrow=classicThin;endFill=1;endSize=5;jettySize=auto;orthogonalLoop=1;strokeWidth=1;fontFamily=Verdana;fontSize=8" parent="1" source="17ea667e15c223fc-3" target="17ea667e15c223fc-4" edge="1">
          <mxGeometry relative="1" as="geometry" />
        </mxCell>
        <mxCell id="17ea667e15c223fc-60" style="edgeStyle=orthogonalEdgeStyle;rounded=1;html=1;labelBackgroundColor=none;startArrow=none;startFill=0;startSize=5;endArrow=classicThin;endFill=1;endSize=5;jettySize=auto;orthogonalLoop=1;strokeWidth=1;fontFamily=Verdana;fontSize=12" parent="1" source="17ea667e15c223fc-3" target="17ea667e15c223fc-10" edge="1">
          <mxGeometry relative="1" as="geometry" />
        </mxCell>
        <mxCell id="17ea667e15c223fc-3" value="OR" style="ellipse;whiteSpace=wrap;html=1;rounded=1;shadow=0;labelBackgroundColor=none;strokeWidth=1;fontFamily=Verdana;fontSize=12;align=center;" parent="1" vertex="1">
          <mxGeometry x="220" y="160" width="40" height="40" as="geometry" />
        </mxCell>
        <mxCell id="17ea667e15c223fc-39" style="edgeStyle=orthogonalEdgeStyle;rounded=1;html=1;labelBackgroundColor=none;startArrow=none;startFill=0;startSize=5;endArrow=classicThin;endFill=1;endSize=5;jettySize=auto;orthogonalLoop=1;strokeWidth=1;fontFamily=Verdana;fontSize=8" parent="1" source="17ea667e15c223fc-4" target="17ea667e15c223fc-7" edge="1">
          <mxGeometry relative="1" as="geometry" />
        </mxCell>
        <mxCell id="17ea667e15c223fc-4" value="Review 1&lt;div&gt;received&lt;/div&gt;" style="shape=hexagon;perimeter=hexagonPerimeter;whiteSpace=wrap;html=1;rounded=0;shadow=0;labelBackgroundColor=none;strokeWidth=1;fontFamily=Verdana;fontSize=12;align=center;" parent="1" vertex="1">
          <mxGeometry x="70" y="230" width="120" height="80" as="geometry" />
        </mxCell>
        <mxCell id="17ea667e15c223fc-36" style="edgeStyle=orthogonalEdgeStyle;rounded=1;html=1;labelBackgroundColor=none;startArrow=none;startFill=0;startSize=5;endArrow=classicThin;endFill=1;endSize=5;jettySize=auto;orthogonalLoop=1;strokeWidth=1;fontFamily=Verdana;fontSize=8" parent="1" source="17ea667e15c223fc-5" target="17ea667e15c223fc-8" edge="1">
          <mxGeometry relative="1" as="geometry" />
        </mxCell>
        <mxCell id="17ea667e15c223fc-5" value="Review 2&lt;div&gt;received&lt;/div&gt;" style="shape=hexagon;perimeter=hexagonPerimeter;whiteSpace=wrap;html=1;rounded=0;shadow=0;labelBackgroundColor=none;strokeWidth=1;fontFamily=Verdana;fontSize=12;align=center;" parent="1" vertex="1">
          <mxGeometry x="300" y="230" width="120" height="80" as="geometry" />
        </mxCell>
        <mxCell id="17ea667e15c223fc-38" style="edgeStyle=orthogonalEdgeStyle;rounded=1;html=1;labelBackgroundColor=none;startArrow=none;startFill=0;startSize=5;endArrow=classicThin;endFill=1;endSize=5;jettySize=auto;orthogonalLoop=1;strokeWidth=1;fontFamily=Verdana;fontSize=8" parent="1" source="17ea667e15c223fc-7" target="17ea667e15c223fc-10" edge="1">
          <mxGeometry relative="1" as="geometry">
            <Array as="points">
              <mxPoint x="130" y="480" />
            </Array>
          </mxGeometry>
        </mxCell>
        <mxCell id="17ea667e15c223fc-7" value="Store Review 1" style="rounded=1;whiteSpace=wrap;html=1;shadow=0;labelBackgroundColor=none;strokeWidth=1;fontFamily=Verdana;fontSize=12;align=center;" parent="1" vertex="1">
          <mxGeometry x="70" y="340" width="120" height="80" as="geometry" />
        </mxCell>
        <mxCell id="17ea667e15c223fc-37" style="edgeStyle=orthogonalEdgeStyle;rounded=1;html=1;labelBackgroundColor=none;startArrow=none;startFill=0;startSize=5;endArrow=classicThin;endFill=1;endSize=5;jettySize=auto;orthogonalLoop=1;strokeWidth=1;fontFamily=Verdana;fontSize=8" parent="1" source="17ea667e15c223fc-8" target="17ea667e15c223fc-10" edge="1">
          <mxGeometry relative="1" as="geometry">
            <Array as="points">
              <mxPoint x="360" y="480" />
            </Array>
          </mxGeometry>
        </mxCell>
        <mxCell id="17ea667e15c223fc-8" value="Store Review 2" style="rounded=1;whiteSpace=wrap;html=1;shadow=0;labelBackgroundColor=none;strokeWidth=1;fontFamily=Verdana;fontSize=12;align=center;" parent="1" vertex="1">
          <mxGeometry x="300" y="340" width="120" height="80" as="geometry" />
        </mxCell>
        <mxCell id="17ea667e15c223fc-40" style="edgeStyle=orthogonalEdgeStyle;rounded=1;html=1;labelBackgroundColor=none;startArrow=none;startFill=0;startSize=5;endArrow=classicThin;endFill=1;endSize=5;jettySize=auto;orthogonalLoop=1;strokeWidth=1;fontFamily=Verdana;fontSize=8" parent="1" source="17ea667e15c223fc-10" target="17ea667e15c223fc-11" edge="1">
          <mxGeometry relative="1" as="geometry" />
        </mxCell>
        <mxCell id="17ea667e15c223fc-10" value="OR" style="ellipse;whiteSpace=wrap;html=1;rounded=1;shadow=0;labelBackgroundColor=none;strokeWidth=1;fontFamily=Verdana;fontSize=12;align=center;" parent="1" vertex="1">
          <mxGeometry x="220" y="460" width="40" height="40" as="geometry" />
        </mxCell>
        <mxCell id="17ea667e15c223fc-41" style="edgeStyle=orthogonalEdgeStyle;rounded=1;html=1;labelBackgroundColor=none;startArrow=none;startFill=0;startSize=5;endArrow=classicThin;endFill=1;endSize=5;jettySize=auto;orthogonalLoop=1;strokeWidth=1;fontFamily=Verdana;fontSize=8" parent="1" source="17ea667e15c223fc-11" target="17ea667e15c223fc-12" edge="1">
          <mxGeometry relative="1" as="geometry" />
        </mxCell>
        <mxCell id="17ea667e15c223fc-11" value="Reviews are to&amp;nbsp;&lt;div&gt;be combined&lt;/div&gt;" style="shape=hexagon;perimeter=hexagonPerimeter;whiteSpace=wrap;html=1;rounded=0;shadow=0;labelBackgroundColor=none;strokeWidth=1;fontFamily=Verdana;fontSize=12;align=center;" parent="1" vertex="1">
          <mxGeometry x="180" y="540" width="120" height="80" as="geometry" />
        </mxCell>
        <mxCell id="17ea667e15c223fc-42" style="edgeStyle=orthogonalEdgeStyle;rounded=1;html=1;labelBackgroundColor=none;startArrow=none;startFill=0;startSize=5;endArrow=classicThin;endFill=1;endSize=5;jettySize=auto;orthogonalLoop=1;strokeWidth=1;fontFamily=Verdana;fontSize=8" parent="1" source="17ea667e15c223fc-12" target="17ea667e15c223fc-13" edge="1">
          <mxGeometry relative="1" as="geometry">
            <Array as="points">
              <mxPoint x="500" y="580" />
              <mxPoint x="500" y="100" />
            </Array>
          </mxGeometry>
        </mxCell>
        <mxCell id="17ea667e15c223fc-12" value="Combine reviews" style="rounded=1;whiteSpace=wrap;html=1;shadow=0;labelBackgroundColor=none;strokeWidth=1;fontFamily=Verdana;fontSize=12;align=center;" parent="1" vertex="1">
          <mxGeometry x="330" y="540" width="120" height="80" as="geometry" />
        </mxCell>
        <mxCell id="17ea667e15c223fc-43" style="edgeStyle=orthogonalEdgeStyle;rounded=1;html=1;labelBackgroundColor=none;startArrow=none;startFill=0;startSize=5;endArrow=classicThin;endFill=1;endSize=5;jettySize=auto;orthogonalLoop=1;strokeWidth=1;fontFamily=Verdana;fontSize=8" parent="1" source="17ea667e15c223fc-13" target="17ea667e15c223fc-14" edge="1">
          <mxGeometry relative="1" as="geometry" />
        </mxCell>
        <mxCell id="17ea667e15c223fc-13" value="Discussion is&amp;nbsp;&lt;div&gt;to be made&lt;/div&gt;" style="shape=hexagon;perimeter=hexagonPerimeter;whiteSpace=wrap;html=1;rounded=0;shadow=0;labelBackgroundColor=none;strokeWidth=1;fontFamily=Verdana;fontSize=12;align=center;" parent="1" vertex="1">
          <mxGeometry x="540" y="60" width="120" height="80" as="geometry" />
        </mxCell>
        <mxCell id="17ea667e15c223fc-44" style="edgeStyle=orthogonalEdgeStyle;rounded=1;html=1;labelBackgroundColor=none;startArrow=none;startFill=0;startSize=5;endArrow=classicThin;endFill=1;endSize=5;jettySize=auto;orthogonalLoop=1;strokeWidth=1;fontFamily=Verdana;fontSize=8" parent="1" source="17ea667e15c223fc-14" target="17ea667e15c223fc-15" edge="1">
          <mxGeometry relative="1" as="geometry" />
        </mxCell>
        <mxCell id="17ea667e15c223fc-14" value="Decide on acceptance" style="rounded=1;whiteSpace=wrap;html=1;shadow=0;labelBackgroundColor=none;strokeWidth=1;fontFamily=Verdana;fontSize=12;align=center;" parent="1" vertex="1">
          <mxGeometry x="720" y="60" width="120" height="80" as="geometry" />
        </mxCell>
        <mxCell id="17ea667e15c223fc-45" style="edgeStyle=orthogonalEdgeStyle;rounded=1;html=1;labelBackgroundColor=none;startArrow=none;startFill=0;startSize=5;endArrow=classicThin;endFill=1;endSize=5;jettySize=auto;orthogonalLoop=1;strokeColor=#000000;strokeWidth=1;fontFamily=Verdana;fontSize=8;fontColor=#000000;" parent="1" source="17ea667e15c223fc-15" target="17ea667e15c223fc-17" edge="1">
          <mxGeometry relative="1" as="geometry" />
        </mxCell>
        <mxCell id="17ea667e15c223fc-15" value="XOR" style="ellipse;whiteSpace=wrap;html=1;rounded=1;shadow=0;labelBackgroundColor=none;strokeWidth=1;fontFamily=Verdana;fontSize=12;align=center;" parent="1" vertex="1">
          <mxGeometry x="760" y="160" width="40" height="40" as="geometry" />
        </mxCell>
        <mxCell id="17ea667e15c223fc-54" style="edgeStyle=orthogonalEdgeStyle;rounded=1;html=1;labelBackgroundColor=none;startArrow=none;startFill=0;startSize=5;endArrow=classicThin;endFill=1;endSize=5;jettySize=auto;orthogonalLoop=1;strokeWidth=1;fontFamily=Verdana;fontSize=8" parent="1" source="17ea667e15c223fc-16" target="17ea667e15c223fc-18" edge="1">
          <mxGeometry relative="1" as="geometry" />
        </mxCell>
        <mxCell id="17ea667e15c223fc-16" value="Additional review&amp;nbsp;&lt;div&gt;is needed&lt;/div&gt;" style="shape=hexagon;perimeter=hexagonPerimeter;whiteSpace=wrap;html=1;rounded=0;shadow=0;labelBackgroundColor=none;strokeWidth=1;fontFamily=Verdana;fontSize=12;align=center;" parent="1" vertex="1">
          <mxGeometry x="540" y="230" width="120" height="80" as="geometry" />
        </mxCell>
        <mxCell id="17ea667e15c223fc-46" style="edgeStyle=orthogonalEdgeStyle;rounded=1;html=1;labelBackgroundColor=none;startArrow=none;startFill=0;startSize=5;endArrow=classicThin;endFill=1;endSize=5;jettySize=auto;orthogonalLoop=1;strokeColor=#000000;strokeWidth=1;fontFamily=Verdana;fontSize=8;fontColor=#000000;" parent="1" source="17ea667e15c223fc-17" target="17ea667e15c223fc-19" edge="1">
          <mxGeometry relative="1" as="geometry" />
        </mxCell>
        <mxCell id="17ea667e15c223fc-49" style="edgeStyle=orthogonalEdgeStyle;rounded=1;html=1;labelBackgroundColor=none;startArrow=none;startFill=0;startSize=5;endArrow=classicThin;endFill=1;endSize=5;jettySize=auto;orthogonalLoop=1;strokeColor=#000000;strokeWidth=1;fontFamily=Verdana;fontSize=8;fontColor=#000000;" parent="1" source="17ea667e15c223fc-17" target="17ea667e15c223fc-20" edge="1">
          <mxGeometry relative="1" as="geometry" />
        </mxCell>
        <mxCell id="17ea667e15c223fc-53" style="edgeStyle=orthogonalEdgeStyle;rounded=1;html=1;labelBackgroundColor=none;startArrow=none;startFill=0;startSize=5;endArrow=classicThin;endFill=1;endSize=5;jettySize=auto;orthogonalLoop=1;strokeColor=#000000;strokeWidth=1;fontFamily=Verdana;fontSize=8;fontColor=#000000;" parent="1" source="17ea667e15c223fc-17" target="17ea667e15c223fc-16" edge="1">
          <mxGeometry relative="1" as="geometry" />
        </mxCell>
        <mxCell id="17ea667e15c223fc-17" value="XOR" style="ellipse;whiteSpace=wrap;html=1;rounded=1;shadow=0;labelBackgroundColor=none;strokeWidth=1;fontFamily=Verdana;fontSize=12;align=center;" parent="1" vertex="1">
          <mxGeometry x="760" y="250" width="40" height="40" as="geometry" />
        </mxCell>
        <mxCell id="17ea667e15c223fc-55" style="edgeStyle=orthogonalEdgeStyle;rounded=1;html=1;labelBackgroundColor=none;startArrow=none;startFill=0;startSize=5;endArrow=classicThin;endFill=1;endSize=5;jettySize=auto;orthogonalLoop=1;strokeWidth=1;fontFamily=Verdana;fontSize=8" parent="1" source="17ea667e15c223fc-18" target="17ea667e15c223fc-21" edge="1">
          <mxGeometry relative="1" as="geometry" />
        </mxCell>
        <mxCell id="17ea667e15c223fc-18" value="Invite additional reviewer" style="rounded=1;whiteSpace=wrap;html=1;shadow=0;labelBackgroundColor=none;strokeWidth=1;fontFamily=Verdana;fontSize=12;align=center;" parent="1" vertex="1">
          <mxGeometry x="540" y="340" width="120" height="80" as="geometry" />
        </mxCell>
        <mxCell id="17ea667e15c223fc-47" style="edgeStyle=orthogonalEdgeStyle;rounded=1;html=1;labelBackgroundColor=none;startArrow=none;startFill=0;startSize=5;endArrow=classicThin;endFill=1;endSize=5;jettySize=auto;orthogonalLoop=1;strokeWidth=1;fontFamily=Verdana;fontSize=8" parent="1" source="17ea667e15c223fc-19" target="17ea667e15c223fc-22" edge="1">
          <mxGeometry relative="1" as="geometry" />
        </mxCell>
        <mxCell id="17ea667e15c223fc-19" value="Paper should&lt;div&gt;be rejected&lt;/div&gt;" style="shape=hexagon;perimeter=hexagonPerimeter;whiteSpace=wrap;html=1;rounded=0;shadow=0;labelBackgroundColor=none;strokeWidth=1;fontFamily=Verdana;fontSize=12;align=center;" parent="1" vertex="1">
          <mxGeometry x="720" y="340" width="120" height="80" as="geometry" />
        </mxCell>
        <mxCell id="17ea667e15c223fc-50" style="edgeStyle=orthogonalEdgeStyle;rounded=1;html=1;labelBackgroundColor=none;startArrow=none;startFill=0;startSize=5;endArrow=classicThin;endFill=1;endSize=5;jettySize=auto;orthogonalLoop=1;strokeWidth=1;fontFamily=Verdana;fontSize=8" parent="1" source="17ea667e15c223fc-20" target="17ea667e15c223fc-23" edge="1">
          <mxGeometry relative="1" as="geometry" />
        </mxCell>
        <mxCell id="17ea667e15c223fc-20" value="Paper should&lt;div&gt;be accepted&lt;/div&gt;" style="shape=hexagon;perimeter=hexagonPerimeter;whiteSpace=wrap;html=1;rounded=0;shadow=0;labelBackgroundColor=none;strokeWidth=1;fontFamily=Verdana;fontSize=12;align=center;" parent="1" vertex="1">
          <mxGeometry x="900" y="340" width="120" height="80" as="geometry" />
        </mxCell>
        <mxCell id="17ea667e15c223fc-56" style="edgeStyle=orthogonalEdgeStyle;rounded=1;html=1;labelBackgroundColor=none;startArrow=none;startFill=0;startSize=5;endArrow=classicThin;endFill=1;endSize=5;jettySize=auto;orthogonalLoop=1;strokeWidth=1;fontFamily=Verdana;fontSize=8" parent="1" source="17ea667e15c223fc-21" target="17ea667e15c223fc-24" edge="1">
          <mxGeometry relative="1" as="geometry" />
        </mxCell>
        <mxCell id="17ea667e15c223fc-58" style="edgeStyle=orthogonalEdgeStyle;rounded=1;html=1;labelBackgroundColor=none;startArrow=none;startFill=0;startSize=5;endArrow=classicThin;endFill=1;endSize=5;jettySize=auto;orthogonalLoop=1;strokeWidth=1;fontFamily=Verdana;fontSize=8" parent="1" source="17ea667e15c223fc-21" target="17ea667e15c223fc-15" edge="1">
          <mxGeometry relative="1" as="geometry">
            <Array as="points">
              <mxPoint x="520" y="480" />
              <mxPoint x="520" y="180" />
            </Array>
          </mxGeometry>
        </mxCell>
        <mxCell id="17ea667e15c223fc-21" value="XOR" style="ellipse;whiteSpace=wrap;html=1;rounded=1;shadow=0;labelBackgroundColor=none;strokeWidth=1;fontFamily=Verdana;fontSize=12;align=center;" parent="1" vertex="1">
          <mxGeometry x="580" y="460" width="40" height="40" as="geometry" />
        </mxCell>
        <mxCell id="17ea667e15c223fc-48" style="edgeStyle=orthogonalEdgeStyle;rounded=1;html=1;labelBackgroundColor=none;startArrow=none;startFill=0;startSize=5;endArrow=classicThin;endFill=1;endSize=5;jettySize=auto;orthogonalLoop=1;strokeWidth=1;fontFamily=Verdana;fontSize=8" parent="1" source="17ea667e15c223fc-22" target="17ea667e15c223fc-25" edge="1">
          <mxGeometry relative="1" as="geometry">
            <Array as="points">
              <mxPoint x="780" y="580" />
            </Array>
          </mxGeometry>
        </mxCell>
        <mxCell id="17ea667e15c223fc-22" value="Reject paper" style="rounded=1;whiteSpace=wrap;html=1;shadow=0;labelBackgroundColor=none;strokeWidth=1;fontFamily=Verdana;fontSize=12;align=center;" parent="1" vertex="1">
          <mxGeometry x="720" y="440" width="120" height="80" as="geometry" />
        </mxCell>
        <mxCell id="17ea667e15c223fc-51" style="edgeStyle=orthogonalEdgeStyle;rounded=1;html=1;labelBackgroundColor=none;startArrow=none;startFill=0;startSize=5;endArrow=classicThin;endFill=1;endSize=5;jettySize=auto;orthogonalLoop=1;strokeWidth=1;fontFamily=Verdana;fontSize=8" parent="1" source="17ea667e15c223fc-23" target="17ea667e15c223fc-25" edge="1">
          <mxGeometry relative="1" as="geometry">
            <Array as="points">
              <mxPoint x="960" y="580" />
            </Array>
          </mxGeometry>
        </mxCell>
        <mxCell id="17ea667e15c223fc-23" value="Accept paper" style="rounded=1;whiteSpace=wrap;html=1;shadow=0;labelBackgroundColor=none;strokeWidth=1;fontFamily=Verdana;fontSize=12;align=center;" parent="1" vertex="1">
          <mxGeometry x="900" y="440" width="120" height="80" as="geometry" />
        </mxCell>
        <mxCell id="17ea667e15c223fc-57" style="edgeStyle=orthogonalEdgeStyle;rounded=1;html=1;labelBackgroundColor=none;startArrow=none;startFill=0;startSize=5;endArrow=classicThin;endFill=1;endSize=5;jettySize=auto;orthogonalLoop=1;strokeWidth=1;fontFamily=Verdana;fontSize=8" parent="1" source="17ea667e15c223fc-24" target="17ea667e15c223fc-27" edge="1">
          <mxGeometry relative="1" as="geometry" />
        </mxCell>
        <mxCell id="17ea667e15c223fc-24" value="Review X was received" style="shape=hexagon;perimeter=hexagonPerimeter;whiteSpace=wrap;html=1;rounded=0;shadow=0;labelBackgroundColor=none;strokeWidth=1;fontFamily=Verdana;fontSize=12;align=center;" parent="1" vertex="1">
          <mxGeometry x="540" y="540" width="120" height="80" as="geometry" />
        </mxCell>
        <mxCell id="17ea667e15c223fc-52" style="edgeStyle=orthogonalEdgeStyle;rounded=1;html=1;labelBackgroundColor=none;startArrow=none;startFill=0;startSize=5;endArrow=classicThin;endFill=1;endSize=5;jettySize=auto;orthogonalLoop=1;strokeWidth=1;fontFamily=Verdana;fontSize=8" parent="1" source="17ea667e15c223fc-25" target="17ea667e15c223fc-26" edge="1">
          <mxGeometry relative="1" as="geometry" />
        </mxCell>
        <mxCell id="17ea667e15c223fc-25" value="XOR" style="ellipse;whiteSpace=wrap;html=1;rounded=1;shadow=0;labelBackgroundColor=none;strokeWidth=1;fontFamily=Verdana;fontSize=12;align=center;" parent="1" vertex="1">
          <mxGeometry x="850" y="560" width="40" height="40" as="geometry" />
        </mxCell>
        <mxCell id="17ea667e15c223fc-26" value="End" style="shape=hexagon;perimeter=hexagonPerimeter;whiteSpace=wrap;html=1;rounded=0;shadow=0;labelBackgroundColor=none;strokeWidth=1;fontFamily=Verdana;fontSize=12;align=center;" parent="1" vertex="1">
          <mxGeometry x="810" y="660" width="120" height="80" as="geometry" />
        </mxCell>
        <mxCell id="17ea667e15c223fc-59" style="edgeStyle=orthogonalEdgeStyle;rounded=1;html=1;labelBackgroundColor=none;startArrow=none;startFill=0;startSize=5;endArrow=classicThin;endFill=1;endSize=5;jettySize=auto;orthogonalLoop=1;sstrokeWidth=1;fontFamily=Verdana;fontSize=8" parent="1" source="17ea667e15c223fc-27" target="17ea667e15c223fc-15" edge="1">
          <mxGeometry relative="1" as="geometry">
            <Array as="points">
              <mxPoint x="520" y="700" />
              <mxPoint x="520" y="180" />
            </Array>
          </mxGeometry>
        </mxCell>
        <mxCell id="17ea667e15c223fc-27" value="Combine review X with others" style="rounded=1;whiteSpace=wrap;html=1;shadow=0;labelBackgroundColor=none;strokeWidth=1;fontFamily=Verdana;fontSize=12;align=center;" parent="1" vertex="1">
          <mxGeometry x="540" y="660" width="120" height="80" as="geometry" />
        </mxCell>
      </root>
    </mxGraphModel>
  </diagram>
  <diagram id="lkuw8HHNza4a4SRVX_0r" name="Page-2">
    <mxGraphModel dx="1182" dy="732" grid="1" gridSize="10" guides="1" tooltips="1" connect="1" arrows="1" fold="1" page="1" pageScale="1" pageWidth="850" pageHeight="1100" math="0" shadow="0">
      <root>
        <mxCell id="m643HSzrrC8pGd6CR_CI-0" />
        <mxCell id="m643HSzrrC8pGd6CR_CI-1" parent="m643HSzrrC8pGd6CR_CI-0" />
        <mxCell id="m643HSzrrC8pGd6CR_CI-7" style="edgeStyle=orthogonalEdgeStyle;rounded=0;orthogonalLoop=1;jettySize=auto;html=1;entryX=0.5;entryY=0;entryDx=0;entryDy=0;" parent="m643HSzrrC8pGd6CR_CI-1" source="m643HSzrrC8pGd6CR_CI-2" target="m643HSzrrC8pGd6CR_CI-5" edge="1">
          <mxGeometry relative="1" as="geometry" />
        </mxCell>
        <mxCell id="m643HSzrrC8pGd6CR_CI-2" value="开始" style="strokeWidth=2;html=1;shape=mxgraph.flowchart.start_1;whiteSpace=wrap;" parent="m643HSzrrC8pGd6CR_CI-1" vertex="1">
          <mxGeometry x="250" y="30" width="100" height="60" as="geometry" />
        </mxCell>
        <mxCell id="m643HSzrrC8pGd6CR_CI-9" style="edgeStyle=orthogonalEdgeStyle;rounded=0;orthogonalLoop=1;jettySize=auto;html=1;entryX=0;entryY=0.5;entryDx=0;entryDy=0;" parent="m643HSzrrC8pGd6CR_CI-1" source="m643HSzrrC8pGd6CR_CI-5" target="m643HSzrrC8pGd6CR_CI-8" edge="1">
          <mxGeometry relative="1" as="geometry" />
        </mxCell>
        <mxCell id="m643HSzrrC8pGd6CR_CI-18" style="edgeStyle=orthogonalEdgeStyle;rounded=0;orthogonalLoop=1;jettySize=auto;html=1;entryX=0.5;entryY=0;entryDx=0;entryDy=0;" parent="m643HSzrrC8pGd6CR_CI-1" source="m643HSzrrC8pGd6CR_CI-5" target="m643HSzrrC8pGd6CR_CI-10" edge="1">
          <mxGeometry relative="1" as="geometry" />
        </mxCell>
        <mxCell id="m643HSzrrC8pGd6CR_CI-5" value="1.编译" style="rounded=1;whiteSpace=wrap;html=1;absoluteArcSize=1;arcSize=14;strokeWidth=2;align=center;" parent="m643HSzrrC8pGd6CR_CI-1" vertex="1">
          <mxGeometry x="250" y="130" width="100" height="60" as="geometry" />
        </mxCell>
        <mxCell id="m643HSzrrC8pGd6CR_CI-8" value="可执行程序&lt;br&gt;库文件" style="shape=parallelogram;html=1;strokeWidth=2;perimeter=parallelogramPerimeter;whiteSpace=wrap;rounded=1;arcSize=12;size=0.23;align=center;" parent="m643HSzrrC8pGd6CR_CI-1" vertex="1">
          <mxGeometry x="430" y="130" width="100" height="60" as="geometry" />
        </mxCell>
        <mxCell id="m643HSzrrC8pGd6CR_CI-19" style="edgeStyle=orthogonalEdgeStyle;rounded=0;orthogonalLoop=1;jettySize=auto;html=1;" parent="m643HSzrrC8pGd6CR_CI-1" source="m643HSzrrC8pGd6CR_CI-10" target="m643HSzrrC8pGd6CR_CI-11" edge="1">
          <mxGeometry relative="1" as="geometry" />
        </mxCell>
        <mxCell id="m643HSzrrC8pGd6CR_CI-10" value="2.安装" style="rounded=1;whiteSpace=wrap;html=1;absoluteArcSize=1;arcSize=14;strokeWidth=2;align=center;" parent="m643HSzrrC8pGd6CR_CI-1" vertex="1">
          <mxGeometry x="250" y="220" width="100" height="60" as="geometry" />
        </mxCell>
        <mxCell id="m643HSzrrC8pGd6CR_CI-12" style="edgeStyle=orthogonalEdgeStyle;rounded=0;orthogonalLoop=1;jettySize=auto;html=1;entryX=0;entryY=0.5;entryDx=0;entryDy=0;" parent="m643HSzrrC8pGd6CR_CI-1" source="m643HSzrrC8pGd6CR_CI-11" target="m643HSzrrC8pGd6CR_CI-13" edge="1">
          <mxGeometry relative="1" as="geometry">
            <mxPoint x="380" y="340" as="targetPoint" />
          </mxGeometry>
        </mxCell>
        <mxCell id="m643HSzrrC8pGd6CR_CI-20" style="edgeStyle=orthogonalEdgeStyle;rounded=0;orthogonalLoop=1;jettySize=auto;html=1;exitX=0.5;exitY=1;exitDx=0;exitDy=0;entryX=0.5;entryY=0;entryDx=0;entryDy=0;" parent="m643HSzrrC8pGd6CR_CI-1" source="m643HSzrrC8pGd6CR_CI-11" target="m643HSzrrC8pGd6CR_CI-14" edge="1">
          <mxGeometry relative="1" as="geometry" />
        </mxCell>
        <mxCell id="m643HSzrrC8pGd6CR_CI-11" value="3.执行测试" style="rounded=1;whiteSpace=wrap;html=1;absoluteArcSize=1;arcSize=14;strokeWidth=2;align=center;" parent="m643HSzrrC8pGd6CR_CI-1" vertex="1">
          <mxGeometry x="250" y="310" width="100" height="60" as="geometry" />
        </mxCell>
        <mxCell id="m643HSzrrC8pGd6CR_CI-13" value="&amp;nbsp; &amp;nbsp; &amp;nbsp;log文件" style="shape=parallelogram;html=1;strokeWidth=2;perimeter=parallelogramPerimeter;whiteSpace=wrap;rounded=1;arcSize=12;size=0.23;align=left;" parent="m643HSzrrC8pGd6CR_CI-1" vertex="1">
          <mxGeometry x="410" y="310" width="100" height="60" as="geometry" />
        </mxCell>
        <mxCell id="m643HSzrrC8pGd6CR_CI-16" style="edgeStyle=orthogonalEdgeStyle;rounded=0;orthogonalLoop=1;jettySize=auto;html=1;entryX=0;entryY=0.5;entryDx=0;entryDy=0;entryPerimeter=0;" parent="m643HSzrrC8pGd6CR_CI-1" source="m643HSzrrC8pGd6CR_CI-14" target="m643HSzrrC8pGd6CR_CI-15" edge="1">
          <mxGeometry relative="1" as="geometry" />
        </mxCell>
        <mxCell id="m643HSzrrC8pGd6CR_CI-27" style="edgeStyle=orthogonalEdgeStyle;rounded=0;orthogonalLoop=1;jettySize=auto;html=1;entryX=0.5;entryY=0;entryDx=0;entryDy=0;entryPerimeter=0;" parent="m643HSzrrC8pGd6CR_CI-1" source="m643HSzrrC8pGd6CR_CI-14" target="m643HSzrrC8pGd6CR_CI-26" edge="1">
          <mxGeometry relative="1" as="geometry" />
        </mxCell>
        <mxCell id="m643HSzrrC8pGd6CR_CI-14" value="4.提取数据" style="rounded=1;whiteSpace=wrap;html=1;absoluteArcSize=1;arcSize=14;strokeWidth=2;align=center;" parent="m643HSzrrC8pGd6CR_CI-1" vertex="1">
          <mxGeometry x="250" y="410" width="100" height="60" as="geometry" />
        </mxCell>
        <mxCell id="m643HSzrrC8pGd6CR_CI-15" value="Excel报表" style="strokeWidth=2;html=1;shape=mxgraph.flowchart.document2;whiteSpace=wrap;size=0.25;align=center;" parent="m643HSzrrC8pGd6CR_CI-1" vertex="1">
          <mxGeometry x="400" y="410" width="100" height="60" as="geometry" />
        </mxCell>
        <mxCell id="m643HSzrrC8pGd6CR_CI-24" style="edgeStyle=orthogonalEdgeStyle;rounded=0;orthogonalLoop=1;jettySize=auto;html=1;entryX=0;entryY=0.5;entryDx=0;entryDy=0;" parent="m643HSzrrC8pGd6CR_CI-1" source="m643HSzrrC8pGd6CR_CI-22" target="m643HSzrrC8pGd6CR_CI-11" edge="1">
          <mxGeometry relative="1" as="geometry" />
        </mxCell>
        <mxCell id="m643HSzrrC8pGd6CR_CI-22" value="generate_log.sh" style="html=1;strokeWidth=2;shape=manualInput;whiteSpace=wrap;rounded=1;size=26;arcSize=11;align=center;" parent="m643HSzrrC8pGd6CR_CI-1" vertex="1">
          <mxGeometry x="70" y="315" width="130" height="50" as="geometry" />
        </mxCell>
        <mxCell id="m643HSzrrC8pGd6CR_CI-25" style="edgeStyle=orthogonalEdgeStyle;rounded=0;orthogonalLoop=1;jettySize=auto;html=1;entryX=0;entryY=0.5;entryDx=0;entryDy=0;" parent="m643HSzrrC8pGd6CR_CI-1" source="m643HSzrrC8pGd6CR_CI-23" target="m643HSzrrC8pGd6CR_CI-14" edge="1">
          <mxGeometry relative="1" as="geometry" />
        </mxCell>
        <mxCell id="m643HSzrrC8pGd6CR_CI-23" value="parse.py xxx.log" style="html=1;strokeWidth=2;shape=manualInput;whiteSpace=wrap;rounded=1;size=26;arcSize=11;align=center;" parent="m643HSzrrC8pGd6CR_CI-1" vertex="1">
          <mxGeometry x="70" y="415" width="130" height="50" as="geometry" />
        </mxCell>
        <mxCell id="m643HSzrrC8pGd6CR_CI-26" value="结束" style="strokeWidth=2;html=1;shape=mxgraph.flowchart.terminator;whiteSpace=wrap;align=center;" parent="m643HSzrrC8pGd6CR_CI-1" vertex="1">
          <mxGeometry x="250" y="510" width="100" height="60" as="geometry" />
        </mxCell>
      </root>
    </mxGraphModel>
  </diagram>
  <diagram name="Copy of Page-2" id="LaRdBhOeWSICmaC31Kdw">
    <mxGraphModel dx="985" dy="1710" grid="1" gridSize="10" guides="1" tooltips="1" connect="1" arrows="1" fold="1" page="1" pageScale="1" pageWidth="850" pageHeight="1100" math="0" shadow="0">
      <root>
        <mxCell id="s-3qhyIjvEt8C-x1ugZq-0" />
        <mxCell id="s-3qhyIjvEt8C-x1ugZq-1" parent="s-3qhyIjvEt8C-x1ugZq-0" />
        <mxCell id="s-3qhyIjvEt8C-x1ugZq-67" style="edgeStyle=orthogonalEdgeStyle;rounded=0;orthogonalLoop=1;jettySize=auto;html=1;entryX=0.5;entryY=0;entryDx=0;entryDy=0;" edge="1" parent="s-3qhyIjvEt8C-x1ugZq-1" source="s-3qhyIjvEt8C-x1ugZq-3" target="s-3qhyIjvEt8C-x1ugZq-64">
          <mxGeometry relative="1" as="geometry" />
        </mxCell>
        <mxCell id="s-3qhyIjvEt8C-x1ugZq-3" value="开始" style="strokeWidth=2;html=1;shape=mxgraph.flowchart.start_1;whiteSpace=wrap;" vertex="1" parent="s-3qhyIjvEt8C-x1ugZq-1">
          <mxGeometry x="250" y="-140" width="100" height="60" as="geometry" />
        </mxCell>
        <mxCell id="s-3qhyIjvEt8C-x1ugZq-5" style="edgeStyle=orthogonalEdgeStyle;rounded=0;orthogonalLoop=1;jettySize=auto;html=1;entryX=0.5;entryY=0;entryDx=0;entryDy=0;entryPerimeter=0;" edge="1" parent="s-3qhyIjvEt8C-x1ugZq-1" source="s-3qhyIjvEt8C-x1ugZq-6" target="s-3qhyIjvEt8C-x1ugZq-23">
          <mxGeometry relative="1" as="geometry">
            <mxPoint x="300" y="220" as="targetPoint" />
          </mxGeometry>
        </mxCell>
        <mxCell id="s-3qhyIjvEt8C-x1ugZq-6" value="发起请求" style="rounded=1;whiteSpace=wrap;html=1;absoluteArcSize=1;arcSize=14;strokeWidth=2;align=center;" vertex="1" parent="s-3qhyIjvEt8C-x1ugZq-1">
          <mxGeometry x="250" y="110" width="100" height="60" as="geometry" />
        </mxCell>
        <mxCell id="s-3qhyIjvEt8C-x1ugZq-22" value="结束" style="strokeWidth=2;html=1;shape=mxgraph.flowchart.terminator;whiteSpace=wrap;align=center;" vertex="1" parent="s-3qhyIjvEt8C-x1ugZq-1">
          <mxGeometry x="250" y="780" width="100" height="60" as="geometry" />
        </mxCell>
        <mxCell id="s-3qhyIjvEt8C-x1ugZq-26" style="edgeStyle=orthogonalEdgeStyle;rounded=0;orthogonalLoop=1;jettySize=auto;html=1;exitX=0.5;exitY=1;exitDx=0;exitDy=0;exitPerimeter=0;entryX=0.5;entryY=0;entryDx=0;entryDy=0;" edge="1" parent="s-3qhyIjvEt8C-x1ugZq-1" source="s-3qhyIjvEt8C-x1ugZq-23" target="s-3qhyIjvEt8C-x1ugZq-25">
          <mxGeometry relative="1" as="geometry" />
        </mxCell>
        <mxCell id="s-3qhyIjvEt8C-x1ugZq-33" style="edgeStyle=orthogonalEdgeStyle;rounded=0;orthogonalLoop=1;jettySize=auto;html=1;entryX=0.5;entryY=0;entryDx=0;entryDy=0;" edge="1" parent="s-3qhyIjvEt8C-x1ugZq-1" source="s-3qhyIjvEt8C-x1ugZq-23" target="s-3qhyIjvEt8C-x1ugZq-32">
          <mxGeometry relative="1" as="geometry" />
        </mxCell>
        <mxCell id="s-3qhyIjvEt8C-x1ugZq-23" value="回复成功？" style="strokeWidth=2;html=1;shape=mxgraph.flowchart.decision;whiteSpace=wrap;" vertex="1" parent="s-3qhyIjvEt8C-x1ugZq-1">
          <mxGeometry x="250" y="190" width="100" height="100" as="geometry" />
        </mxCell>
        <mxCell id="s-3qhyIjvEt8C-x1ugZq-31" style="edgeStyle=orthogonalEdgeStyle;rounded=0;orthogonalLoop=1;jettySize=auto;html=1;entryX=0.5;entryY=0;entryDx=0;entryDy=0;" edge="1" parent="s-3qhyIjvEt8C-x1ugZq-1" source="s-3qhyIjvEt8C-x1ugZq-25" target="s-3qhyIjvEt8C-x1ugZq-30">
          <mxGeometry relative="1" as="geometry" />
        </mxCell>
        <mxCell id="s-3qhyIjvEt8C-x1ugZq-25" value="获取系统时间戳T2" style="rounded=1;whiteSpace=wrap;html=1;absoluteArcSize=1;arcSize=14;strokeWidth=2;align=center;" vertex="1" parent="s-3qhyIjvEt8C-x1ugZq-1">
          <mxGeometry x="250" y="310" width="100" height="60" as="geometry" />
        </mxCell>
        <mxCell id="s-3qhyIjvEt8C-x1ugZq-28" style="edgeStyle=orthogonalEdgeStyle;rounded=0;orthogonalLoop=1;jettySize=auto;html=1;entryX=0.5;entryY=0;entryDx=0;entryDy=0;" edge="1" parent="s-3qhyIjvEt8C-x1ugZq-1" source="s-3qhyIjvEt8C-x1ugZq-27" target="s-3qhyIjvEt8C-x1ugZq-6">
          <mxGeometry relative="1" as="geometry" />
        </mxCell>
        <mxCell id="s-3qhyIjvEt8C-x1ugZq-27" value="记录系统时间戳T1" style="rounded=1;whiteSpace=wrap;html=1;absoluteArcSize=1;arcSize=14;strokeWidth=2;align=center;" vertex="1" parent="s-3qhyIjvEt8C-x1ugZq-1">
          <mxGeometry x="250" y="20" width="100" height="60" as="geometry" />
        </mxCell>
        <mxCell id="s-3qhyIjvEt8C-x1ugZq-49" style="edgeStyle=orthogonalEdgeStyle;rounded=0;orthogonalLoop=1;jettySize=auto;html=1;entryX=0.5;entryY=0;entryDx=0;entryDy=0;" edge="1" parent="s-3qhyIjvEt8C-x1ugZq-1" source="s-3qhyIjvEt8C-x1ugZq-30" target="s-3qhyIjvEt8C-x1ugZq-48">
          <mxGeometry relative="1" as="geometry" />
        </mxCell>
        <mxCell id="s-3qhyIjvEt8C-x1ugZq-30" value="计算响应时间 Response time = T2-T1" style="rounded=1;whiteSpace=wrap;html=1;absoluteArcSize=1;arcSize=14;strokeWidth=2;align=center;" vertex="1" parent="s-3qhyIjvEt8C-x1ugZq-1">
          <mxGeometry x="250" y="400" width="100" height="60" as="geometry" />
        </mxCell>
        <mxCell id="s-3qhyIjvEt8C-x1ugZq-53" style="edgeStyle=orthogonalEdgeStyle;rounded=0;orthogonalLoop=1;jettySize=auto;html=1;entryX=1;entryY=0.5;entryDx=0;entryDy=0;" edge="1" parent="s-3qhyIjvEt8C-x1ugZq-1" source="s-3qhyIjvEt8C-x1ugZq-32" target="s-3qhyIjvEt8C-x1ugZq-48">
          <mxGeometry relative="1" as="geometry">
            <Array as="points">
              <mxPoint x="460" y="530" />
            </Array>
          </mxGeometry>
        </mxCell>
        <mxCell id="s-3qhyIjvEt8C-x1ugZq-32" value="error +=1&amp;nbsp;" style="rounded=1;whiteSpace=wrap;html=1;absoluteArcSize=1;arcSize=14;strokeWidth=2;align=center;" vertex="1" parent="s-3qhyIjvEt8C-x1ugZq-1">
          <mxGeometry x="410" y="360" width="100" height="60" as="geometry" />
        </mxCell>
        <mxCell id="s-3qhyIjvEt8C-x1ugZq-66" style="edgeStyle=orthogonalEdgeStyle;rounded=0;orthogonalLoop=1;jettySize=auto;html=1;entryX=0.5;entryY=0;entryDx=0;entryDy=0;entryPerimeter=0;" edge="1" parent="s-3qhyIjvEt8C-x1ugZq-1" source="s-3qhyIjvEt8C-x1ugZq-42" target="s-3qhyIjvEt8C-x1ugZq-3">
          <mxGeometry relative="1" as="geometry" />
        </mxCell>
        <mxCell id="s-3qhyIjvEt8C-x1ugZq-42" value="&lt;br&gt;TEST_TIMES =10000&lt;br&gt;THINK_TIME = 1s&amp;nbsp;" style="html=1;strokeWidth=2;shape=manualInput;whiteSpace=wrap;rounded=1;size=16;arcSize=11;align=left;" vertex="1" parent="s-3qhyIjvEt8C-x1ugZq-1">
          <mxGeometry x="232.5" y="-230" width="135" height="60" as="geometry" />
        </mxCell>
        <mxCell id="s-3qhyIjvEt8C-x1ugZq-51" style="edgeStyle=orthogonalEdgeStyle;rounded=0;orthogonalLoop=1;jettySize=auto;html=1;exitX=0;exitY=0.5;exitDx=0;exitDy=0;exitPerimeter=0;entryX=0;entryY=0.5;entryDx=0;entryDy=0;" edge="1" parent="s-3qhyIjvEt8C-x1ugZq-1" source="s-3qhyIjvEt8C-x1ugZq-46" target="s-3qhyIjvEt8C-x1ugZq-27">
          <mxGeometry relative="1" as="geometry">
            <Array as="points">
              <mxPoint x="190" y="700" />
              <mxPoint x="190" y="50" />
            </Array>
          </mxGeometry>
        </mxCell>
        <mxCell id="s-3qhyIjvEt8C-x1ugZq-52" style="edgeStyle=orthogonalEdgeStyle;rounded=0;orthogonalLoop=1;jettySize=auto;html=1;exitX=0.5;exitY=1;exitDx=0;exitDy=0;exitPerimeter=0;entryX=0.5;entryY=0;entryDx=0;entryDy=0;entryPerimeter=0;" edge="1" parent="s-3qhyIjvEt8C-x1ugZq-1" source="s-3qhyIjvEt8C-x1ugZq-46" target="s-3qhyIjvEt8C-x1ugZq-22">
          <mxGeometry relative="1" as="geometry" />
        </mxCell>
        <mxCell id="s-3qhyIjvEt8C-x1ugZq-46" value="count ==0?" style="strokeWidth=2;html=1;shape=mxgraph.flowchart.decision;whiteSpace=wrap;" vertex="1" parent="s-3qhyIjvEt8C-x1ugZq-1">
          <mxGeometry x="250" y="650" width="100" height="100" as="geometry" />
        </mxCell>
        <mxCell id="s-3qhyIjvEt8C-x1ugZq-56" style="edgeStyle=orthogonalEdgeStyle;rounded=0;orthogonalLoop=1;jettySize=auto;html=1;entryX=0.5;entryY=0;entryDx=0;entryDy=0;" edge="1" parent="s-3qhyIjvEt8C-x1ugZq-1" source="s-3qhyIjvEt8C-x1ugZq-48" target="s-3qhyIjvEt8C-x1ugZq-55">
          <mxGeometry relative="1" as="geometry" />
        </mxCell>
        <mxCell id="s-3qhyIjvEt8C-x1ugZq-48" value="count-=1" style="rounded=1;whiteSpace=wrap;html=1;absoluteArcSize=1;arcSize=14;strokeWidth=2;align=center;" vertex="1" parent="s-3qhyIjvEt8C-x1ugZq-1">
          <mxGeometry x="250" y="480" width="100" height="60" as="geometry" />
        </mxCell>
        <mxCell id="s-3qhyIjvEt8C-x1ugZq-57" style="edgeStyle=orthogonalEdgeStyle;rounded=0;orthogonalLoop=1;jettySize=auto;html=1;entryX=0.5;entryY=0;entryDx=0;entryDy=0;entryPerimeter=0;" edge="1" parent="s-3qhyIjvEt8C-x1ugZq-1" source="s-3qhyIjvEt8C-x1ugZq-55" target="s-3qhyIjvEt8C-x1ugZq-46">
          <mxGeometry relative="1" as="geometry" />
        </mxCell>
        <mxCell id="s-3qhyIjvEt8C-x1ugZq-55" value="sleep think times" style="rounded=1;whiteSpace=wrap;html=1;absoluteArcSize=1;arcSize=14;strokeWidth=2;align=center;" vertex="1" parent="s-3qhyIjvEt8C-x1ugZq-1">
          <mxGeometry x="250" y="560" width="100" height="60" as="geometry" />
        </mxCell>
        <mxCell id="s-3qhyIjvEt8C-x1ugZq-68" style="edgeStyle=orthogonalEdgeStyle;rounded=0;orthogonalLoop=1;jettySize=auto;html=1;entryX=0.5;entryY=0;entryDx=0;entryDy=0;" edge="1" parent="s-3qhyIjvEt8C-x1ugZq-1" source="s-3qhyIjvEt8C-x1ugZq-64" target="s-3qhyIjvEt8C-x1ugZq-27">
          <mxGeometry relative="1" as="geometry" />
        </mxCell>
        <mxCell id="s-3qhyIjvEt8C-x1ugZq-64" value="&lt;br&gt;error = 0;&lt;br&gt;count = 0;&lt;br&gt;reponse[&lt;span style=&quot;text-align: left&quot;&gt;TEST_TIMES]={0};&lt;/span&gt;" style="rounded=1;whiteSpace=wrap;html=1;absoluteArcSize=1;arcSize=14;strokeWidth=2;align=center;" vertex="1" parent="s-3qhyIjvEt8C-x1ugZq-1">
          <mxGeometry x="245" y="-70" width="110" height="60" as="geometry" />
        </mxCell>
      </root>
    </mxGraphModel>
  </diagram>
</mxfile>
